<?xml version="1.0" encoding="UTF-8" standalone="no"?>
<svg viewBox="0 0 165 56" version="1.1" xmlns="http://www.w3.org/2000/svg" xmlns:xlink="http://www.w3.org/1999/xlink">
    <title>Advanced Roofing</title>
    <defs>
        <polygon id="path-1" points="12.780789 18.8363636 0.119183486 18.8363636 0.119183486 0.427738182 12.780789 0.427738182"></polygon>
        <polygon id="path-3" points="12.7165046 18.8363636 0.0538899083 18.8363636 0.0538899083 0.427738182 12.7165046 0.427738182 12.7165046 18.8363636"></polygon>
        <polygon id="path-5" points="160.675688 12.42136 160.675688 0.440923636 0.458972477 0.440923636 0.458972477 12.42136 160.675688 12.42136"></polygon>
    </defs>
    <g id="Page-1" stroke="none" stroke-width="1" fill="none" fill-rule="evenodd">
        <g id="assets" transform="translate(-251.000000, -3485.000000)">
            <g id="logo-dt" transform="translate(251.000000, 3485.000000)">
                <path d="M58.5306468,11.92408 L58.1597752,5.43978909 L58.1269771,5.43978909 L56.0495917,11.92408 L58.5306468,11.92408 Z M62.5945917,18.6150618 L58.9348211,18.6150618 L58.7698211,15.7005164 L54.8295,15.7005164 L53.8894541,18.6150618 L49.8668853,18.6150618 L56.6924358,0.81368 L60.674133,0.81368 L62.5945917,18.6150618 Z" id="Fill-1" fill="#231F20"></path>
                <g id="Group-37" transform="translate(0.000000, 0.115055)">
                    <path d="M68.2828532,14.5657527 L69.824367,14.5657527 C70.8466606,14.5657527 71.607578,13.78888 72.1081284,12.2341164 C72.6076697,10.6798618 72.857945,9.12968 72.857945,7.58306182 C72.857945,6.66822545 72.713633,5.94633455 72.4250092,5.41586182 C72.1368899,4.88538909 71.6186789,4.62015273 70.8708807,4.62015273 L69.6840917,4.62015273 L68.2828532,14.5657527 Z M66.4940917,0.698625455 L71.4567064,0.698625455 C73.2207431,0.698625455 74.5064312,1.38640727 75.3147798,2.76248 C76.1226239,4.13957091 76.5262936,5.93615273 76.5262936,8.15375273 C76.5262936,10.28328 76.1801468,12.2504073 75.4878532,14.0551345 C74.795055,15.86088 73.9761101,17.0531709 73.0310183,17.6314982 C72.0859266,18.2108436 71.1842294,18.5000073 70.3274404,18.5000073 L63.9630826,18.5000073 L66.4940917,0.698625455 Z" id="Fill-2" fill="#231F20"></path>
                    <polygon id="Fill-4" fill="#231F20" points="90.1449495 0.698523636 83.3607752 18.4999055 79.3210505 18.4999055 76.9964174 0.698523636 80.7056376 0.698523636 81.7859587 13.3753964 81.8187569 13.3753964 86.097656 0.698523636"></polygon>
                    <path d="M95.477578,11.8090255 L95.107211,5.32473455 L95.0739083,5.32473455 L92.9970275,11.8090255 L95.477578,11.8090255 Z M99.5420275,18.5000073 L95.8822569,18.5000073 L95.7172569,15.5854618 L91.7769358,15.5854618 L90.8368899,18.5000073 L86.8138165,18.5000073 L93.639367,0.698625455 L97.6215688,0.698625455 L99.5420275,18.5000073 Z" id="Fill-6" fill="#231F20"></path>
                    <polygon id="Fill-8" fill="#231F20" points="115.023468 0.698523636 112.426862 18.4999055 108.931587 18.4999055 105.938881 8.15416 105.906587 8.15416 104.405945 18.4999055 100.894018 18.4999055 103.491128 0.698523636 106.986404 0.698523636 109.961954 11.0681964 109.994752 11.0681964 111.512046 0.698523636"></polygon>
                    <path d="M127.908151,6.53962909 L124.478977,7.10981091 L124.478977,7.01257455 C124.478977,6.14661091 124.302876,5.50312 123.951179,5.08210182 C123.599986,4.66159273 123.211959,4.45032 122.789115,4.45032 C122.239619,4.45032 121.703748,4.74762909 121.182005,5.34275636 C120.659757,5.93737455 120.24095,6.84712 119.924573,8.06893818 C119.608197,9.29126545 119.450261,10.48152 119.450261,11.6391927 C119.450261,12.5214473 119.612739,13.2601382 119.936683,13.8547564 C120.261133,14.4503927 120.733427,14.7471927 121.354573,14.7471927 C121.926775,14.7471927 122.408656,14.4809382 122.801729,13.9463927 C123.194298,13.4118473 123.539436,12.5901745 123.836133,11.4813745 L127.330904,12.2821745 C126.96861,14.1205018 126.266225,15.66712 125.225261,16.9210109 C124.183794,18.17592 122.827968,18.80312 121.156775,18.80312 C119.41494,18.80312 118.08283,18.1194109 117.162968,16.7519927 C116.242096,15.3830473 115.781913,13.5620291 115.781913,11.2869018 C115.781913,9.54632 116.055399,7.79861091 116.602372,6.04122909 C117.149344,4.28435636 117.947601,2.90421091 118.997142,1.90079273 C120.046683,0.896865455 121.305124,0.394392727 122.772463,0.394392727 C124.294803,0.394392727 125.497234,0.957447273 126.379252,2.08253818 C127.261271,3.20813818 127.770904,4.69366545 127.908151,6.53962909" id="Fill-10" fill="#231F20"></path>
                    <polygon id="Fill-12" fill="#231F20" points="140.545486 0.698523636 139.993468 4.52383273 133.860211 4.52383273 133.456037 7.35285091 139.366771 7.35285091 138.822826 10.9592509 132.920165 10.9592509 132.409018 14.4444873 139.062 14.4444873 138.468101 18.4999055 128.089248 18.4999055 130.669706 0.698523636"></polygon>
                    <path d="M144.617706,14.5657527 L146.159725,14.5657527 C147.182018,14.5657527 147.942936,13.78888 148.442982,12.2341164 C148.943028,10.6798618 149.193303,9.12968 149.193303,7.58306182 C149.193303,6.66822545 149.048991,5.94633455 148.760367,5.41586182 C148.471743,4.88538909 147.953532,4.62015273 147.206743,4.62015273 L146.018945,4.62015273 L144.617706,14.5657527 Z M142.828945,0.698625455 L147.792064,0.698625455 C149.555596,0.698625455 150.841789,1.38640727 151.650138,2.76248 C152.457982,4.13957091 152.861651,5.93615273 152.861651,8.15375273 C152.861651,10.28328 152.515,12.2504073 151.822706,14.0551345 C151.130413,15.86088 150.311468,17.0531709 149.365872,17.6314982 C148.421284,18.2108436 147.520092,18.5000073 146.662294,18.5000073 L140.29844,18.5000073 L142.828945,0.698625455 Z" id="Fill-14" fill="#231F20"></path>
                    <path d="M66.9519037,44.1138982 L67.6608486,44.1138982 C68.8476376,44.1138982 69.6156193,44.0334618 69.9647936,43.8705527 C70.3139679,43.7091709 70.5733257,43.4362982 70.7438761,43.0509164 C70.9144266,42.6670618 70.9997018,42.2964436 70.9997018,41.94008 C70.9997018,41.4869891 70.8977752,41.1316436 70.6944266,40.8725164 C70.491078,40.6133891 70.048555,40.4830618 69.3673624,40.4830618 L67.4711239,40.4830618 L66.9519037,44.1138982 Z M64.2483257,36.8766618 L71.1233257,36.8766618 C72.3101147,36.8766618 73.1785092,37.3348436 73.7280046,38.2486618 C74.2780046,39.1640073 74.5525,40.2641527 74.5525,41.5521527 C74.5525,42.9445164 74.2608486,44.1607345 73.6790596,45.2008073 C73.0962615,46.24088 72.1647936,46.9062618 70.8841514,47.19848 C71.6425459,48.1051709 72.549289,50.59768 73.6043807,54.6785527 L69.6559862,54.6785527 C69.3259862,53.3910618 68.9374541,51.9844436 68.4893807,50.4592073 C68.0413073,48.9324436 67.7047477,48.0486618 67.4791972,47.8053164 C67.2541514,47.5619709 66.9821789,47.4408073 66.6632798,47.4408073 L66.4654817,47.4408073 L65.4351147,54.6785527 L61.6845183,54.6785527 L64.2483257,36.8766618 Z" id="Fill-16" fill="#231F20"></path>
                    <g id="Group-20" transform="translate(75.183486, 36.145455)">
                        <mask id="mask-2" fill="white">
                            <use xlink:href="#path-1"></use>
                        </mask>
                        <g id="Clip-19"></g>
                        <path d="M5.84019266,14.7805382 C6.56023853,14.7805382 7.17129358,14.3798836 7.67436697,13.5790836 C8.17693578,12.7767564 8.54377064,11.7672291 8.77487156,10.5489745 C9.00597248,9.33072 9.12101835,8.46221091 9.12101835,7.94395636 C9.12101835,6.80308364 8.92422936,5.94068364 8.53166055,5.35777455 C8.13858716,4.77486545 7.63702752,4.48315636 7.02748624,4.48315636 C6.34578899,4.48315636 5.75895413,4.84970182 5.26698165,5.58279273 C4.77551376,6.31486545 4.40565138,7.29079273 4.15840367,8.50904727 C3.91115596,9.72730182 3.78753211,10.7658473 3.78753211,11.6236655 C3.78753211,12.5303564 3.96918349,13.2838109 4.33147706,13.8819927 C4.69427523,14.4811927 5.19734862,14.7805382 5.84019266,14.7805382 M7.43115596,0.427738182 C9.27188991,0.427738182 10.6241835,1.15421091 11.4870275,2.60715636 C12.3498716,4.06061091 12.780789,5.84802909 12.780789,7.96839273 C12.780789,8.78650182 12.7015688,9.71966545 12.5421193,10.7673745 C12.3821651,11.8161018 12.0748716,12.9009745 11.6187248,14.0219927 C11.1620734,15.1430109 10.5706972,16.0939927 9.84257798,16.8749382 C9.11445872,17.6569018 8.41459633,18.1792291 7.74450459,18.4414109 C7.07390826,18.7046109 6.36244037,18.8364655 5.60909174,18.8364655 C3.88390826,18.8364655 2.53716514,18.1929745 1.57037615,16.9065018 C0.602577982,15.6185018 0.119183486,13.8132655 0.119183486,11.4902836 C0.119183486,10.2755927 0.238770642,9.09144727 0.477944954,7.93835636 C0.717119266,6.78424727 1.07386239,5.69530182 1.54968807,4.67202909 C2.02450459,3.64824727 2.60982569,2.78992 3.30514679,2.09806545 C4.00046789,1.40570182 4.68418349,0.954138182 5.35780734,0.743883636 C6.03092661,0.533629091 6.72221101,0.427738182 7.43115596,0.427738182" id="Fill-18" fill="#231F20" mask="url(#mask-2)"></path>
                    </g>
                    <g id="Group-23" transform="translate(89.311927, 36.145455)">
                        <mask id="mask-4" fill="white">
                            <use xlink:href="#path-3"></use>
                        </mask>
                        <g id="Clip-22"></g>
                        <path d="M5.77540367,14.7805382 C6.49494495,14.7805382 7.10650459,14.3798836 7.60957798,13.5790836 C8.11214679,12.7767564 8.47847706,11.7672291 8.70957798,10.5489745 C8.94017431,9.33072 9.05572477,8.46221091 9.05572477,7.94395636 C9.05572477,6.80308364 8.85944037,5.94068364 8.46636697,5.35777455 C8.07379817,4.77486545 7.57223853,4.48315636 6.96219266,4.48315636 C6.28049541,4.48315636 5.69366055,4.84970182 5.20219266,5.58279273 C4.71022018,6.31486545 4.3403578,7.29079273 4.09311009,8.50904727 C3.84636697,9.72730182 3.72274312,10.7658473 3.72274312,11.6236655 C3.72274312,12.5303564 3.90388991,13.2838109 4.26668807,13.8819927 C4.62948624,14.4811927 5.13205505,14.7805382 5.77540367,14.7805382 M7.36586239,0.427738182 C9.20710092,0.427738182 10.5588899,1.15421091 11.4212294,2.60715636 C12.284578,4.06061091 12.7165046,5.84802909 12.7165046,7.96839273 C12.7165046,8.78650182 12.6367798,9.71966545 12.4768257,10.7673745 C12.3173761,11.8161018 12.009578,12.9009745 11.5534312,14.0219927 C11.0972844,15.1430109 10.5054037,16.0939927 9.77778899,16.8749382 C9.04866055,17.6569018 8.34980734,18.1792291 7.67921101,18.4414109 C7.00861468,18.7046109 6.2966422,18.8364655 5.54379817,18.8364655 C3.81861468,18.8364655 2.47187156,18.1929745 1.50457798,16.9065018 C0.537284404,15.6185018 0.0538899083,13.8132655 0.0538899083,11.4902836 C0.0538899083,10.2755927 0.173477064,9.09144727 0.412651376,7.93835636 C0.651825688,6.78424727 1.00907339,5.69530182 1.4843945,4.67202909 C1.9597156,3.64824727 2.5450367,2.78992 3.24086239,2.09806545 C3.9356789,1.40570182 4.6193945,0.954138182 5.29251376,0.743883636 C5.96613761,0.533629091 6.65691743,0.427738182 7.36586239,0.427738182" id="Fill-21" fill="#231F20" mask="url(#mask-4)"></path>
                    </g>
                    <polygon id="Fill-24" fill="#231F20" points="114.508991 36.8767636 113.948394 40.6776364 108.408532 40.6776364 107.938761 43.8594545 113.355 43.8594545 112.818624 47.4658545 107.378165 47.4658545 106.38867 54.6786545 102.654725 54.6786545 105.234679 36.8767636"></polygon>
                    <polygon id="Fill-26" fill="#231F20" points="120.452674 36.8767636 117.864142 54.6786545 114.080243 54.6786545 116.668775 36.8767636"></polygon>
                    <polygon id="Fill-28" fill="#231F20" points="134.598372 36.8767636 132.001766 54.6786545 128.506491 54.6786545 125.513784 44.3329091 125.480986 44.3329091 123.980849 54.6786545 120.468922 54.6786545 123.066032 36.8767636 126.560803 36.8767636 129.536858 47.2469455 129.569656 47.2469455 131.086445 36.8767636"></polygon>
                    <path d="M148.002477,42.0253527 L144.32555,42.62048 C143.990505,41.2113164 143.308807,40.5077527 142.280963,40.5077527 C141.275826,40.5077527 140.478578,41.2566255 139.890734,42.7543709 C139.302385,44.2521164 139.008716,45.8547345 139.008716,47.5622255 C139.008716,48.5503709 139.226697,49.3776436 139.664174,50.04608 C140.100642,50.7140073 140.657202,51.0474618 141.333349,51.0474618 L141.366651,51.0474618 C142.135642,51.0474618 142.811789,50.7562618 143.394083,50.1738618 L143.666055,48.2668073 L141.382798,48.2668073 L141.926743,44.5514618 L147.565505,44.5514618 L146.352982,52.9178618 C144.474404,54.2944436 142.610963,54.9817164 140.764174,54.9817164 C139.099037,54.9817164 137.778532,54.3178618 136.80367,52.9906618 C135.827798,51.6629527 135.339862,49.7971345 135.339862,47.3932073 C135.339862,45.3848436 135.650688,43.5429527 136.271835,41.8670255 C136.892982,40.1916073 137.76844,38.8903709 138.897202,37.9633164 C140.026468,37.0367709 141.322752,36.5729891 142.784037,36.5729891 C145.641514,36.5729891 147.38133,38.3909527 148.002477,42.0253527" id="Fill-30" fill="#231F20"></path>
                    <path d="M35.8934541,34.3670982 L34.3564817,14.6790255 L34.2202431,14.6790255 L25.6140046,34.3670982 L35.8934541,34.3670982 Z M52.7305183,54.6813527 L37.5666651,54.6813527 L36.8839587,45.8333527 L20.559555,45.8333527 L16.6661606,54.6813527 L0.000151376147,54.6813527 L28.2777202,0.632189091 L44.7731789,0.632189091 L52.7305183,54.6813527 Z" id="Fill-32" fill="#E6362B"></path>
                    <g id="Group-36" transform="translate(4.036697, 20.872727)">
                        <mask id="mask-6" fill="white">
                            <use xlink:href="#path-5"></use>
                        </mask>
                        <g id="Clip-35"></g>
                        <polygon id="Fill-34" fill="#E6362B" mask="url(#mask-6)" points="0.461495413 0.485723636 0.458972477 11.8679782 147.369523 8.44892364 147.384661 12.42136 160.675991 6.43954182 147.368009 0.440923636 147.346817 4.13488727"></polygon>
                    </g>
                </g>
            </g>
        </g>
    </g>
</svg>